<svg width="24" height="24" viewBox="0 0 24 24" fill="none" xmlns="http://www.w3.org/2000/svg">
<path d="M12 0.375C5.37097 0.375 0 5.57812 0 12C0 18.4219 5.37097 23.625 12 23.625C18.629 23.625 24 18.4219 24 12C24 5.57812 18.629 0.375 12 0.375ZM17.8935 8.33906L15.9242 17.3297C15.779 17.9672 15.3871 18.1219 14.8403 17.8219L11.8403 15.6797L10.3935 17.0297C10.2339 17.1844 10.0984 17.3156 9.78871 17.3156L10.0016 14.3578L15.5613 9.49219C15.8032 9.28594 15.5081 9.16875 15.1887 9.375L8.31774 13.5656L5.35645 12.6703C4.7129 12.4734 4.69839 12.0469 5.49194 11.7469L17.0613 7.425C17.5984 7.2375 18.0677 7.55156 17.8935 8.33906Z" fill="#0E0E2C"/>
</svg>
