<svg width="18" height="16" viewBox="0 0 18 16" fill="none" xmlns="http://www.w3.org/2000/svg">
<path d="M15.8 1.84164C14.9153 0.956649 13.7423 0.418582 12.4944 0.325295C11.2464 0.232007 10.0065 0.589695 9.00001 1.33331C7.93972 0.544675 6.62 0.18707 5.30661 0.332508C3.99321 0.477947 2.78371 1.11563 1.92165 2.11713C1.05959 3.11864 0.609024 4.40958 0.660673 5.72999C0.712322 7.0504 1.26235 8.3022 2.20001 9.23331L8.40834 15.4416C8.48581 15.5198 8.57798 15.5817 8.67953 15.6241C8.78107 15.6664 8.89 15.6881 9.00001 15.6881C9.11002 15.6881 9.21894 15.6664 9.32049 15.6241C9.42204 15.5817 9.5142 15.5198 9.59167 15.4416L15.8 9.23331C16.2856 8.74808 16.6707 8.17193 16.9335 7.53778C17.1963 6.90364 17.3316 6.22392 17.3316 5.53748C17.3316 4.85104 17.1963 4.17132 16.9335 3.53717C16.6707 2.90302 16.2856 2.32687 15.8 1.84164ZM14.625 8.05831L9.00001 13.675L3.37501 8.05831C2.87932 7.56056 2.54165 6.92752 2.40436 6.23859C2.26708 5.54967 2.33628 4.83555 2.6033 4.18581C2.87032 3.53606 3.32325 2.97964 3.90529 2.58633C4.48733 2.19302 5.17256 1.98034 5.87501 1.97498C6.81343 1.97728 7.71259 2.35192 8.37501 3.01664C8.45248 3.09475 8.54464 3.15675 8.64619 3.19905C8.74774 3.24136 8.85666 3.26314 8.96667 3.26314C9.07668 3.26314 9.1856 3.24136 9.28715 3.19905C9.3887 3.15675 9.48087 3.09475 9.55834 3.01664C10.2403 2.42571 11.1213 2.11593 12.023 2.15C12.9247 2.18406 13.7798 2.55943 14.4152 3.20013C15.0506 3.84084 15.4188 4.69901 15.4454 5.60097C15.472 6.50293 15.1549 7.3813 14.5583 8.05831H14.625Z" fill="#0E0E2C"/>
</svg>
