<svg width="18" height="18" viewBox="0 0 18 18" fill="none" xmlns="http://www.w3.org/2000/svg">
<path d="M17.0916 15.9083L14 12.8416C15.2 11.3453 15.7812 9.44606 15.624 7.5344C15.4667 5.62273 14.583 3.84397 13.1546 2.56385C11.7261 1.28374 9.86147 0.599573 7.94407 0.65204C6.02666 0.704507 4.20223 1.48962 2.84592 2.84593C1.4896 4.20225 0.704492 6.02668 0.652025 7.94408C0.599558 9.86149 1.28372 11.7261 2.56384 13.1546C3.84395 14.583 5.62272 15.4667 7.53438 15.624C9.44605 15.7812 11.3453 15.2001 12.8416 14L15.9083 17.0666C15.9858 17.1448 16.0779 17.2068 16.1795 17.2491C16.281 17.2914 16.39 17.3131 16.5 17.3131C16.61 17.3131 16.7189 17.2914 16.8204 17.2491C16.922 17.2068 17.0142 17.1448 17.0916 17.0666C17.2418 16.9113 17.3258 16.7036 17.3258 16.4875C17.3258 16.2714 17.2418 16.0637 17.0916 15.9083ZM8.16663 14C7.01291 14 5.88509 13.6579 4.92581 13.0169C3.96652 12.3759 3.21885 11.4649 2.77734 10.399C2.33582 9.33307 2.2203 8.16018 2.44539 7.02862C2.67047 5.89707 3.22604 4.85767 4.04184 4.04186C4.85765 3.22605 5.89705 2.67048 7.02861 2.4454C8.16016 2.22032 9.33305 2.33584 10.399 2.77735C11.4649 3.21886 12.3759 3.96654 13.0169 4.92582C13.6578 5.88511 14 7.01292 14 8.16665C14 9.71375 13.3854 11.1975 12.2914 12.2914C11.1975 13.3854 9.71373 14 8.16663 14Z" fill="white"/>
</svg>
